<?xml version="1.0" standalone="no"?>
<!DOCTYPE svg PUBLIC "-//W3C//DTD SVG 20010904//EN"
 "http://www.w3.org/TR/2001/REC-SVG-20010904/DTD/svg10.dtd">
<svg version="1.0" xmlns="http://www.w3.org/2000/svg"
 width="866.000000pt" height="866.000000pt" viewBox="0 0 866.000000 866.000000"
 preserveAspectRatio="xMidYMid meet">
<metadata>
Created by potrace 1.14, written by Peter Selinger 2001-2017
</metadata>
<g transform="translate(0.000000,866.000000) scale(0.100000,-0.100000)"
fill="#000000" stroke="none">
<path d="M4258 8448 c-39 -10 -93 -54 -122 -99 -11 -17 -18 -55 -20 -110 -3
-46 -14 -145 -26 -219 -11 -74 -30 -196 -41 -270 -12 -74 -37 -223 -56 -330
-35 -202 -67 -394 -83 -515 -14 -100 -37 -235 -75 -435 -19 -96 -48 -260 -64
-365 -17 -104 -40 -245 -51 -312 -11 -67 -20 -134 -20 -148 0 -18 -5 -25 -19
-25 -44 0 -421 -99 -536 -142 -44 -16 -151 -63 -239 -106 l-158 -77 -32 40
c-205 258 -399 391 -781 539 -302 118 -307 121 -365 238 -39 80 -66 105 -129
119 -101 23 -190 -43 -228 -167 -25 -82 -48 -208 -64 -360 -17 -164 -7 -502
19 -630 66 -326 186 -630 325 -823 100 -139 232 -295 296 -351 36 -31 61 -61
61 -73 0 -11 -29 -93 -65 -183 -140 -355 -227 -792 -241 -1214 -24 -722 160
-1225 592 -1616 112 -101 127 -113 239 -189 181 -121 417 -222 690 -294 66
-18 140 -39 165 -46 63 -20 405 -82 552 -100 535 -65 1124 -24 1738 121 582
138 905 297 1195 589 272 274 416 589 485 1065 77 526 -45 1294 -303 1910 -5
10 8 25 41 47 48 33 185 170 253 254 205 254 364 694 399 1106 20 231 -11 602
-66 792 -39 135 -104 201 -199 201 -82 0 -129 -37 -186 -147 -29 -56 -57 -96
-76 -109 -17 -11 -107 -51 -199 -89 -413 -166 -582 -282 -763 -522 -82 -110
-155 -229 -217 -356 -39 -80 -55 -104 -60 -91 -19 59 -33 89 -87 179 -102 172
-181 262 -316 362 -68 51 -242 151 -301 174 -23 8 -28 20 -49 127 -13 64 -54
246 -91 403 -38 157 -85 366 -105 465 -20 98 -42 202 -50 230 -23 81 -73 305
-111 494 -19 96 -61 283 -94 415 -59 238 -76 316 -110 471 -18 85 -31 111 -71
142 -51 39 -109 49 -181 30z m56 -267 c31 -31 47 -55 44 -67 -3 -16 -12 -11
-56 30 -28 27 -52 57 -52 67 0 28 10 23 64 -30z m62 -137 l50 -24 27 -138 c40
-205 41 -202 -55 -102 -45 47 -86 84 -91 82 -5 -1 -6 2 -3 7 4 5 1 13 -7 18
-7 4 -23 21 -35 37 -19 24 -22 41 -22 113 l0 84 43 -26 c23 -15 65 -37 93 -51z
m-55 -303 c66 -60 134 -116 153 -125 27 -13 36 -25 45 -62 7 -26 10 -49 7 -51
-8 -9 -78 39 -161 110 -81 71 -185 198 -185 227 0 21 13 35 18 20 2 -6 58 -60
123 -119z m34 -219 c66 -52 141 -106 168 -120 51 -29 59 -45 72 -152 5 -46 32
-168 51 -232 8 -27 -12 -22 -121 31 -160 77 -405 267 -405 313 0 7 11 78 25
157 14 79 25 149 25 155 0 6 15 -5 32 -24 18 -19 86 -77 153 -128z m-30 -457
c50 -36 149 -94 222 -130 l132 -65 9 -43 c5 -23 8 -43 8 -44 -1 -1 -83 40
-182 90 -193 99 -289 164 -372 251 -45 48 -52 60 -52 96 l0 41 73 -66 c39 -36
113 -95 162 -130z m-178 -65 c7 0 27 -13 45 -28 66 -57 167 -118 337 -204 96
-48 180 -88 187 -88 14 0 19 -15 29 -95 4 -27 15 -86 26 -130 16 -70 38 -195
35 -195 -1 0 -40 16 -86 36 -123 51 -324 154 -426 218 -110 68 -242 183 -268
233 -17 34 -18 44 -7 93 7 30 16 82 22 115 5 33 12 70 14 83 l6 23 37 -31 c20
-16 42 -30 49 -30z m-7 -471 c251 -178 453 -290 609 -340 77 -25 94 -40 106
-96 6 -31 6 -32 -22 -24 -29 9 -97 40 -328 150 -174 84 -354 201 -451 294 -67
66 -74 76 -74 112 l0 39 43 -41 c23 -22 76 -65 117 -94z m-134 -96 c61 -58
183 -142 302 -207 150 -82 454 -224 505 -235 23 -6 54 -12 68 -15 25 -5 26 -9
32 -88 3 -46 17 -130 32 -186 15 -57 25 -106 23 -108 -12 -12 -415 134 -533
194 -74 37 -347 211 -367 234 -9 11 -49 53 -88 94 -48 51 -69 80 -66 92 9 30
34 155 41 210 4 28 8 52 9 52 2 0 21 -17 42 -37z m3331 -384 c8 -24 28 -118
45 -209 31 -157 32 -176 32 -395 -1 -260 -15 -366 -79 -586 -98 -338 -293
-657 -495 -810 l-45 -34 45 53 c142 167 235 337 260 479 13 73 10 177 -6 193
-6 6 -27 -5 -54 -27 -53 -42 -169 -98 -246 -118 -73 -19 -174 -30 -174 -19 0
39 45 268 69 349 63 216 125 329 256 461 55 55 118 115 139 132 l39 31 -29 24
-29 25 24 26 c14 14 22 26 19 26 -9 0 -219 -211 -279 -280 -168 -195 -281
-449 -309 -695 -5 -49 -10 -96 -10 -103 0 -10 -12 -12 -47 -7 -67 9 -245 51
-323 76 -70 23 -213 97 -207 107 2 4 9 23 17 42 25 64 127 264 170 335 74 121
177 250 268 335 133 125 209 173 432 272 295 130 398 199 451 303 19 35 38 63
44 62 5 -2 15 -23 22 -48z m-5895 -34 c11 -22 35 -58 53 -80 35 -43 157 -120
245 -155 86 -34 297 -128 385 -172 173 -87 302 -190 449 -358 54 -62 60 -48
-51 -127 -62 -45 -274 -256 -312 -311 -27 -39 -33 -36 -38 19 -5 53 -52 196
-93 283 -62 131 -210 293 -394 433 -113 85 -131 103 -187 187 -31 47 -40 55
-46 41 -8 -23 35 -107 80 -155 58 -61 130 -120 140 -113 6 3 7 2 4 -4 -5 -8
33 -51 41 -45 3 3 43 -43 116 -132 130 -157 186 -285 229 -524 23 -130 23
-131 5 -179 -60 -152 -85 -325 -67 -457 15 -105 15 -111 -8 -173 l-18 -53 -71
78 c-97 107 -232 274 -288 356 -121 178 -223 440 -271 701 -59 319 -53 538 22
875 14 63 28 119 30 124 6 9 15 -3 45 -59z m2552 -46 c98 -88 183 -148 313
-222 178 -102 321 -158 544 -212 l156 -39 32 -140 c18 -78 46 -202 63 -276 38
-167 38 -166 13 -162 -38 7 -290 111 -460 189 -352 163 -623 346 -766 516 -57
68 -59 80 -30 220 11 50 22 118 26 150 4 31 9 57 12 57 3 0 46 -37 97 -81z m6
-565 c188 -156 277 -212 540 -341 252 -124 509 -228 594 -239 49 -7 56 -18 56
-88 0 -29 -3 -36 -12 -29 -7 6 -56 25 -108 43 -52 18 -131 48 -175 67 -44 19
-127 54 -185 78 -134 55 -170 73 -370 185 -91 50 -199 117 -240 148 -118 89
-223 198 -259 269 -17 34 -31 66 -31 70 0 4 24 -15 53 -43 28 -28 90 -82 137
-120z m-322 94 c-2 -16 -13 -24 -38 -30 -45 -10 -340 -20 -320 -11 23 10 291
61 328 62 29 1 33 -2 30 -21z m1610 -122 c128 -71 237 -179 314 -311 56 -97
147 -305 156 -357 7 -42 9 -43 107 -95 138 -72 233 -108 398 -151 134 -35 150
-37 292 -36 175 1 256 16 365 67 41 20 77 31 78 26 2 -5 -13 -39 -34 -77 -128
-230 -332 -456 -526 -581 -481 -312 -1181 -487 -1663 -415 -350 52 -585 154
-765 334 -80 80 -103 111 -147 195 -28 55 -62 129 -76 165 -31 82 -107 234
-113 227 -9 -9 53 -398 70 -438 5 -10 -1 -19 -17 -26 -33 -15 -245 -169 -285
-207 -85 -79 -185 -246 -198 -328 -4 -21 -8 -38 -9 -38 -1 0 -27 11 -56 23
-30 13 -88 34 -129 46 -289 87 -521 193 -631 288 -117 102 -176 189 -235 343
-27 72 -29 82 -29 250 0 168 1 178 29 250 69 179 239 382 456 541 58 42 245
147 312 174 73 30 206 66 328 91 93 18 360 43 360 33 0 -22 -64 -315 -89 -409
-17 -63 -31 -120 -31 -125 0 -6 21 -20 48 -32 26 -12 85 -46 132 -76 218 -138
552 -291 742 -341 188 -49 423 -58 561 -21 82 21 202 79 253 121 46 37 88 100
105 156 7 24 6 46 -5 83 -8 28 -20 82 -27 120 -7 39 -25 115 -41 170 -16 55
-44 163 -64 240 -19 77 -37 148 -40 157 -7 22 5 18 104 -36z m-1308 -141 c14
-11 45 -36 70 -57 228 -184 809 -462 1090 -520 33 -6 60 -15 60 -19 0 -21 -55
-68 -111 -96 -131 -65 -186 -76 -338 -70 -194 7 -350 54 -539 163 -175 100
-425 310 -476 397 l-24 42 18 98 c11 53 22 102 25 107 3 5 10 35 16 67 6 32
13 61 15 65 3 4 42 -30 87 -75 45 -46 93 -92 107 -102z m-47 -514 c48 -35 86
-66 84 -68 -8 -8 -109 58 -200 131 -127 101 -128 102 -163 66 -25 -25 -54 -39
-54 -26 0 2 11 28 25 58 14 29 25 62 25 72 0 14 27 -6 98 -75 53 -52 137 -123
185 -158z m-1843 -842 c0 -24 111 -176 166 -230 129 -121 282 -203 601 -318
291 -106 407 -154 444 -185 17 -14 35 -24 40 -20 5 3 8 52 7 108 l-3 103 45
89 c60 120 194 256 324 332 49 29 92 52 95 52 4 0 26 -25 50 -56 93 -119 256
-235 442 -315 127 -54 227 -83 394 -115 121 -23 167 -27 340 -27 166 -1 220 3
320 21 355 66 575 145 955 340 191 98 268 142 329 191 l44 35 29 -35 c65 -77
134 -259 213 -564 94 -364 121 -548 131 -890 8 -279 -5 -417 -61 -650 -56
-232 -109 -360 -222 -527 -175 -263 -392 -433 -742 -583 -276 -117 -713 -227
-1100 -275 -533 -66 -830 -62 -1301 16 -425 70 -720 153 -944 266 -216 108
-335 193 -509 366 -99 98 -143 150 -194 231 -153 243 -206 395 -259 741 -25
156 -25 542 0 720 45 336 76 480 164 760 41 133 63 186 135 327 48 95 67 121
67 92z"/>
<path d="M2775 2506 c-17 -19 -43 -63 -56 -98 l-24 -63 -8 65 c-12 99 -44 132
-92 96 -14 -10 -20 -30 -23 -80 -2 -36 -6 -66 -7 -66 -2 0 -19 16 -39 36 -24
24 -43 34 -58 32 -34 -5 -34 -40 1 -105 17 -31 29 -58 28 -60 -2 -1 -29 11
-60 28 -65 35 -100 35 -105 2 -2 -16 10 -36 42 -67 25 -24 46 -46 46 -49 0 -3
-22 -19 -49 -36 -57 -37 -68 -57 -45 -82 22 -24 35 -24 69 3 l28 21 -26 -39
c-14 -21 -38 -87 -54 -147 -30 -115 -27 -139 16 -145 32 -5 58 22 77 82 50
153 133 245 257 284 106 33 311 12 427 -45 84 -41 170 -133 204 -218 35 -87
50 -105 92 -105 47 0 69 34 59 95 -9 66 -86 210 -152 287 -80 93 -153 151
-252 201 -80 40 -89 42 -172 42 l-87 0 24 54 c28 62 30 96 8 105 -27 10 -36 7
-69 -28z"/>
<path d="M5948 2523 c-28 -7 -29 -33 -3 -90 14 -31 25 -56 25 -57 0 0 -22 1
-49 2 -116 8 -252 -48 -364 -149 -103 -93 -167 -195 -217 -342 -27 -78 -22
-114 17 -123 52 -13 75 6 122 100 103 205 281 304 533 294 88 -3 102 -7 172
-42 109 -55 175 -129 205 -227 33 -109 38 -118 65 -125 38 -9 66 11 66 49 -1
62 -28 187 -48 219 l-21 33 37 0 c27 0 37 5 40 18 5 26 -35 66 -75 73 -18 3
-33 8 -33 10 0 2 18 21 41 41 54 49 72 84 55 108 -18 25 -46 13 -97 -40 -65
-67 -146 -100 -105 -43 9 13 32 45 52 72 27 39 34 57 32 85 -4 52 -38 54 -88
6 -31 -30 -42 -35 -64 -29 -23 5 -26 10 -21 28 17 51 16 82 -2 103 -30 35 -59
38 -88 9 -22 -22 -25 -34 -25 -90 0 -36 -4 -67 -9 -70 -5 -3 -26 30 -47 75
-33 70 -65 112 -84 108 -3 -1 -12 -3 -22 -6z"/>
<path d="M3990 1200 c-9 -6 -14 -21 -12 -43 3 -31 -1 -38 -43 -66 l-47 -32
-43 26 c-106 62 -121 0 -25 -108 149 -168 458 -253 730 -201 181 34 324 107
425 216 59 63 77 104 54 119 -20 13 -36 11 -53 -6 -8 -8 -24 -15 -35 -15 -20
0 -91 74 -91 96 0 17 -21 23 -49 13 -21 -8 -23 -14 -18 -52 4 -31 14 -49 37
-69 l32 -26 -43 -32 c-140 -104 -370 -152 -548 -116 -130 27 -291 96 -291 125
0 5 16 18 35 30 32 19 65 70 65 101 0 14 -37 50 -52 50 -7 0 -20 -5 -28 -10z"/>
<path d="M5452 7028 c-10 -30 -10 -31 3 -14 13 17 21 46 12 46 -1 0 -8 -15
-15 -32z"/>
<path d="M5515 7040 c11 -5 27 -9 35 -9 9 0 8 4 -5 9 -11 5 -27 9 -35 9 -9 0
-8 -4 5 -9z"/>
<path d="M5578 7023 c6 -2 18 -2 25 0 6 3 1 5 -13 5 -14 0 -19 -2 -12 -5z"/>
<path d="M5627 7013 c10 -3 9 -11 -2 -34 -21 -41 -11 -36 14 6 l20 35 -22 -1
c-12 0 -16 -3 -10 -6z"/>
<path d="M5438 6900 c42 -26 56 -26 17 0 -16 11 -34 20 -40 20 -5 0 5 -9 23
-20z"/>
<path d="M3235 6470 c17 -59 65 -134 98 -151 14 -8 8 4 -21 41 -23 29 -42 56
-42 61 0 5 -9 23 -21 41 -17 28 -19 29 -14 8z"/>
<path d="M3116 6377 c3 -10 9 -15 12 -12 3 3 0 11 -7 18 -10 9 -11 8 -5 -6z"/>
<path d="M3213 6241 c-15 -12 -23 -30 -22 -48 l1 -28 10 30 c6 17 17 38 26 48
20 22 13 21 -15 -2z"/>
<path d="M5978 5713 c6 -2 18 -2 25 0 6 3 1 5 -13 5 -14 0 -19 -2 -12 -5z"/>
<path d="M6035 5698 c11 -6 27 -16 35 -22 9 -6 5 -1 -8 12 -13 12 -28 22 -35
22 -7 0 -3 -6 8 -12z"/>
<path d="M6116 5605 c11 -49 21 -61 26 -31 3 15 3 24 0 21 -3 -3 -12 5 -19 17
-13 22 -13 22 -7 -7z"/>
</g>
</svg>
